<?xml version="1.0" standalone="no"?>
<!DOCTYPE svg PUBLIC "-//W3C//DTD SVG 20010904//EN"
 "http://www.w3.org/TR/2001/REC-SVG-20010904/DTD/svg10.dtd">
<svg version="1.0" xmlns="http://www.w3.org/2000/svg"
 width="405.000000pt" height="383.000000pt" viewBox="0 0 405.000000 383.000000"
 preserveAspectRatio="xMidYMid meet">

<g transform="translate(0.000000,383.000000) scale(0.100000,-0.100000)"
fill="#000000" stroke="none">
<path d="M0 1915 l0 -1915 2025 0 2025 0 0 1915 0 1915 -2025 0 -2025 0 0
-1915z m2078 1709 c12 -8 20 -20 17 -25 -4 -5 -2 -9 2 -9 5 0 6 -27 3 -59 -8
-89 -26 -100 -161 -101 -103 0 -107 1 -123 25 -23 36 -23 160 2 174 9 6 67 11
127 11 85 0 116 -4 133 -16z m1314 -23 c9 -11 14 -22 11 -25 -4 -3 -2 -6 3 -6
5 0 8 -36 6 -80 -4 -95 -4 -94 -133 -88 l-81 3 -39 45 c-31 36 -38 53 -39 87
0 36 4 44 33 62 27 17 48 21 127 21 82 0 98 -3 112 -19z m-2635 -6 c14 -10 19
-22 16 -35 -3 -11 -1 -20 3 -20 5 0 7 -26 5 -57 -5 -82 -20 -93 -130 -93 -91
0 -106 5 -163 58 -48 44 -35 121 25 147 45 20 216 20 244 0z m28 -396 c80 -81
524 -484 534 -484 4 0 132 117 285 260 245 230 282 261 319 268 90 16 88 18
400 -289 159 -156 292 -284 296 -284 4 0 124 121 266 270 143 148 267 270 275
270 8 0 26 9 40 20 32 25 75 26 85 3 6 -15 31 -1288 35 -1813 l2 -165 -24 -6
c-12 -4 -618 -7 -1345 -8 -1083 -1 -1324 1 -1335 12 -11 11 -14 199 -17 995
-3 901 -2 982 13 982 9 0 16 7 16 15 0 11 12 15 48 15 45 0 51 -3 107 -61z
m1355 -2104 c0 -9 -8 -32 -19 -53 -10 -20 -28 -68 -40 -107 -12 -38 -24 -78
-27 -87 -5 -17 24 -18 505 -18 281 0 511 -2 511 -4 0 -2 3 -12 7 -22 6 -16
-23 -17 -515 -10 l-521 7 -15 -52 c-9 -29 -16 -84 -16 -122 l0 -69 33 7 c44
10 82 30 144 76 52 39 53 39 122 33 60 -6 70 -10 80 -31 18 -39 68 -53 186
-53 63 0 105 -4 105 -10 0 -13 -214 -13 -262 0 -20 6 -48 24 -62 40 -37 44
-77 41 -157 -13 -71 -47 -159 -73 -215 -62 -34 6 -34 6 -34 63 0 32 7 84 15
115 19 74 19 77 -4 77 -13 0 -34 -21 -60 -57 -21 -32 -61 -83 -88 -114 l-48
-56 -82 0 c-65 -1 -83 2 -83 13 0 23 -12 16 -60 -31 -35 -34 -53 -44 -79 -45
l-33 0 5 63 c3 34 10 81 15 105 13 60 3 45 -64 -88 -71 -142 -181 -332 -226
-387 -26 -33 -40 -42 -65 -42 -36 -1 -45 14 -13 22 31 8 136 179 267 439 l60
117 -31 -6 c-17 -3 -85 -16 -151 -29 -66 -13 -147 -27 -181 -30 -71 -8 -194 3
-194 17 0 5 36 9 80 9 60 0 99 6 152 25 39 14 88 25 107 25 20 0 63 7 96 15
33 8 79 14 101 15 48 0 56 9 101 116 27 63 33 69 61 72 29 3 32 1 32 -24 0
-15 -9 -46 -19 -68 -11 -23 -22 -52 -26 -65 -6 -21 -5 -23 22 -17 15 3 75 8
133 12 58 3 123 13 145 20 22 8 50 14 63 14 12 0 22 4 22 8 0 5 24 41 53 80
28 39 67 96 85 127 26 43 39 55 58 55 15 0 24 -6 24 -15z"/>
<path d="M1940 3546 c0 -25 5 -46 10 -46 6 0 10 18 10 39 0 22 -4 43 -10 46
-6 4 -10 -12 -10 -39z"/>
<path d="M607 3533 c-13 -12 -7 -41 13 -64 l19 -24 1 48 c0 44 -13 61 -33 40z"/>
<path d="M2024 2959 c3 -79 9 -489 12 -911 l6 -768 259 0 259 0 -5 93 c-3 50
-10 348 -16 662 l-11 570 -186 188 c-103 104 -218 216 -255 249 l-68 61 5
-144z"/>
<path d="M743 2903 c4 -104 7 -509 7 -900 l0 -713 255 0 256 0 -6 98 c-3 53
-10 358 -16 677 -9 516 -12 582 -27 602 -22 28 -458 423 -468 423 -4 0 -4 -84
-1 -187z"/>
<path d="M1670 2900 c-113 -105 -222 -209 -243 -230 -21 -22 -42 -40 -48 -40
-6 0 -7 -30 -4 -77 3 -43 10 -343 16 -668 6 -324 12 -591 13 -591 0 -1 112 -4
247 -7 l246 -6 -4 432 c-3 238 -8 645 -11 905 l-7 473 -205 -191z"/>
<path d="M2960 2866 c-102 -105 -204 -213 -228 -239 -23 -26 -46 -47 -50 -47
-5 0 -7 -51 -5 -112 6 -232 23 -1026 23 -1105 l0 -83 240 0 240 0 -5 178 c-3
97 -10 496 -16 887 -6 390 -11 711 -12 711 -1 1 -85 -85 -187 -190z"/>
<path d="M1992 880 c-26 -35 -27 -40 -7 -40 8 0 15 1 15 3 0 1 4 17 9 35 5 17
9 32 7 32 -1 0 -12 -13 -24 -30z"/>
<path d="M1810 783 c-30 -1 -108 -8 -172 -15 -91 -9 -119 -15 -122 -27 -9 -31
-26 -135 -26 -160 0 -23 4 -21 58 32 42 41 65 57 85 57 21 0 27 -5 27 -23 0
-21 4 -23 44 -21 51 2 88 24 105 61 7 15 26 44 42 65 17 21 27 37 22 36 -4 -1
-33 -3 -63 -5z"/>
</g>
</svg>
